<svg xmlns="http://www.w3.org/2000/svg" width="1500" height="560" viewBox="0 0 1500 560">
<rect width="100%" height="100%" fill="#fff"/>
<style>text{font-family:Menlo,monospace;font-size:12px}.state{fill:#eef4ff;stroke:#3267a8;stroke-width:2}.edge{fill:none;stroke:#9aa8b8;stroke-width:1.3}.best{stroke:#d14;stroke-width:3}.label{fill:#222}.prob{fill:#555;font-size:11px}</style>
<text x="30" y="28" font-size="18" font-weight="bold">google/flan-t5-small tokenizer: exact weighted segmentation DAG</text>
<text x="30" y="50" class="label">input: the keys to the cabinet   |   24 states, 48 arcs</text>
<path d="M70.0,300 C70.0,165.0 247.4,165.0 247.4,300" class="best"/>
<text x="158.7" y="162.0" text-anchor="middle" class="label">▁the</text>
<text x="158.7" y="175.0" text-anchor="middle" class="prob">0.992</text>
<path d="M70.0,300 C70.0,135.0 129.1,135.0 129.1,300" class="edge"/>
<path d="M70.0,300 C70.0,150.0 188.3,150.0 188.3,300" class="edge"/>
<path d="M70.0,300 C70.0,165.0 247.4,165.0 247.4,300" class="edge"/>
<text x="158.7" y="162.0" text-anchor="middle" class="label">the</text>
<text x="158.7" y="175.0" text-anchor="middle" class="prob">0.007</text>
<path d="M129.1,300 C129.1,150.0 247.4,150.0 247.4,300" class="edge"/>
<path d="M129.1,300 C129.1,135.0 188.3,135.0 188.3,300" class="edge"/>
<path d="M188.3,300 C188.3,135.0 247.4,135.0 247.4,300" class="edge"/>
<path d="M247.4,300 C247.4,135.0 306.5,135.0 306.5,300" class="edge"/>
<text x="277.0" y="132.0" text-anchor="middle" class="label">▁</text>
<text x="277.0" y="145.0" text-anchor="middle" class="prob">0.005</text>
<path d="M247.4,300 C247.4,180.0 483.9,180.0 483.9,300" class="edge"/>
<text x="365.7" y="177.0" text-anchor="middle" class="label">▁key</text>
<text x="365.7" y="190.0" text-anchor="middle" class="prob">0.157</text>
<path d="M247.4,300 C247.4,195.0 543.0,195.0 543.0,300" class="best"/>
<text x="395.2" y="192.0" text-anchor="middle" class="label">▁keys</text>
<text x="395.2" y="205.0" text-anchor="middle" class="prob">0.839</text>
<path d="M306.5,300 C306.5,135.0 365.7,135.0 365.7,300" class="edge"/>
<path d="M306.5,300 C306.5,150.0 424.8,150.0 424.8,300" class="edge"/>
<path d="M306.5,300 C306.5,165.0 483.9,165.0 483.9,300" class="edge"/>
<text x="395.2" y="162.0" text-anchor="middle" class="label">key</text>
<text x="395.2" y="175.0" text-anchor="middle" class="prob">0.005</text>
<path d="M365.7,300 C365.7,135.0 424.8,135.0 424.8,300" class="edge"/>
<path d="M424.8,300 C424.8,135.0 483.9,135.0 483.9,300" class="edge"/>
<path d="M483.9,300 C483.9,135.0 543.0,135.0 543.0,300" class="edge"/>
<text x="513.5" y="132.0" text-anchor="middle" class="label">s</text>
<text x="513.5" y="145.0" text-anchor="middle" class="prob">0.161</text>
<path d="M543.0,300 C543.0,135.0 602.2,135.0 602.2,300" class="edge"/>
<text x="572.6" y="132.0" text-anchor="middle" class="label">▁</text>
<text x="572.6" y="145.0" text-anchor="middle" class="prob">0.004</text>
<path d="M543.0,300 C543.0,165.0 720.4,165.0 720.4,300" class="best"/>
<text x="631.7" y="162.0" text-anchor="middle" class="label">▁to</text>
<text x="631.7" y="175.0" text-anchor="middle" class="prob">0.996</text>
<path d="M602.2,300 C602.2,135.0 661.3,135.0 661.3,300" class="edge"/>
<path d="M602.2,300 C602.2,150.0 720.4,150.0 720.4,300" class="edge"/>
<text x="661.3" y="147.0" text-anchor="middle" class="label">to</text>
<text x="661.3" y="160.0" text-anchor="middle" class="prob">0.004</text>
<path d="M661.3,300 C661.3,135.0 720.4,135.0 720.4,300" class="edge"/>
<path d="M720.4,300 C720.4,135.0 779.6,135.0 779.6,300" class="edge"/>
<path d="M720.4,300 C720.4,180.0 957.0,180.0 957.0,300" class="best"/>
<text x="838.7" y="177.0" text-anchor="middle" class="label">▁the</text>
<text x="838.7" y="190.0" text-anchor="middle" class="prob">0.999</text>
<path d="M779.6,300 C779.6,135.0 838.7,135.0 838.7,300" class="edge"/>
<path d="M779.6,300 C779.6,150.0 897.8,150.0 897.8,300" class="edge"/>
<path d="M779.6,300 C779.6,165.0 957.0,165.0 957.0,300" class="edge"/>
<path d="M838.7,300 C838.7,150.0 957.0,150.0 957.0,300" class="edge"/>
<path d="M838.7,300 C838.7,135.0 897.8,135.0 897.8,300" class="edge"/>
<path d="M897.8,300 C897.8,135.0 957.0,135.0 957.0,300" class="edge"/>
<path d="M957.0,300 C957.0,135.0 1016.1,135.0 1016.1,300" class="edge"/>
<path d="M957.0,300 C957.0,165.0 1134.3,165.0 1134.3,300" class="edge"/>
<path d="M957.0,300 C957.0,240.0 1430.0,240.0 1430.0,300" class="best"/>
<text x="1193.5" y="237.0" text-anchor="middle" class="label">▁cabinet</text>
<text x="1193.5" y="250.0" text-anchor="middle" class="prob">1.000</text>
<path d="M957.0,300 C957.0,210.0 1311.7,210.0 1311.7,300" class="edge"/>
<path d="M1016.1,300 C1016.1,135.0 1075.2,135.0 1075.2,300" class="edge"/>
<path d="M1016.1,300 C1016.1,150.0 1134.3,150.0 1134.3,300" class="edge"/>
<path d="M1016.1,300 C1016.1,165.0 1193.5,165.0 1193.5,300" class="edge"/>
<path d="M1075.2,300 C1075.2,135.0 1134.3,135.0 1134.3,300" class="edge"/>
<path d="M1075.2,300 C1075.2,165.0 1252.6,165.0 1252.6,300" class="edge"/>
<path d="M1134.3,300 C1134.3,135.0 1193.5,135.0 1193.5,300" class="edge"/>
<path d="M1134.3,300 C1134.3,165.0 1311.7,165.0 1311.7,300" class="edge"/>
<path d="M1134.3,300 C1134.3,180.0 1370.9,180.0 1370.9,300" class="edge"/>
<path d="M1193.5,300 C1193.5,135.0 1252.6,135.0 1252.6,300" class="edge"/>
<path d="M1193.5,300 C1193.5,150.0 1311.7,150.0 1311.7,300" class="edge"/>
<path d="M1193.5,300 C1193.5,165.0 1370.9,165.0 1370.9,300" class="edge"/>
<path d="M1252.6,300 C1252.6,135.0 1311.7,135.0 1311.7,300" class="edge"/>
<path d="M1252.6,300 C1252.6,165.0 1430.0,165.0 1430.0,300" class="edge"/>
<path d="M1311.7,300 C1311.7,135.0 1370.9,135.0 1370.9,300" class="edge"/>
<path d="M1370.9,300 C1370.9,135.0 1430.0,135.0 1430.0,300" class="edge"/>
<circle cx="70.0" cy="300" r="18" class="state"/><text x="70.0" y="304" text-anchor="middle">0</text>
<circle cx="129.1" cy="300" r="18" class="state"/><text x="129.1" y="304" text-anchor="middle">1</text>
<circle cx="188.3" cy="300" r="18" class="state"/><text x="188.3" y="304" text-anchor="middle">2</text>
<circle cx="247.4" cy="300" r="18" class="state"/><text x="247.4" y="304" text-anchor="middle">3</text>
<circle cx="306.5" cy="300" r="18" class="state"/><text x="306.5" y="304" text-anchor="middle">4</text>
<circle cx="365.7" cy="300" r="18" class="state"/><text x="365.7" y="304" text-anchor="middle">5</text>
<circle cx="424.8" cy="300" r="18" class="state"/><text x="424.8" y="304" text-anchor="middle">6</text>
<circle cx="483.9" cy="300" r="18" class="state"/><text x="483.9" y="304" text-anchor="middle">7</text>
<circle cx="543.0" cy="300" r="18" class="state"/><text x="543.0" y="304" text-anchor="middle">8</text>
<circle cx="602.2" cy="300" r="18" class="state"/><text x="602.2" y="304" text-anchor="middle">9</text>
<circle cx="661.3" cy="300" r="18" class="state"/><text x="661.3" y="304" text-anchor="middle">10</text>
<circle cx="720.4" cy="300" r="18" class="state"/><text x="720.4" y="304" text-anchor="middle">11</text>
<circle cx="779.6" cy="300" r="18" class="state"/><text x="779.6" y="304" text-anchor="middle">12</text>
<circle cx="838.7" cy="300" r="18" class="state"/><text x="838.7" y="304" text-anchor="middle">13</text>
<circle cx="897.8" cy="300" r="18" class="state"/><text x="897.8" y="304" text-anchor="middle">14</text>
<circle cx="957.0" cy="300" r="18" class="state"/><text x="957.0" y="304" text-anchor="middle">15</text>
<circle cx="1016.1" cy="300" r="18" class="state"/><text x="1016.1" y="304" text-anchor="middle">16</text>
<circle cx="1075.2" cy="300" r="18" class="state"/><text x="1075.2" y="304" text-anchor="middle">17</text>
<circle cx="1134.3" cy="300" r="18" class="state"/><text x="1134.3" y="304" text-anchor="middle">18</text>
<circle cx="1193.5" cy="300" r="18" class="state"/><text x="1193.5" y="304" text-anchor="middle">19</text>
<circle cx="1252.6" cy="300" r="18" class="state"/><text x="1252.6" y="304" text-anchor="middle">20</text>
<circle cx="1311.7" cy="300" r="18" class="state"/><text x="1311.7" y="304" text-anchor="middle">21</text>
<circle cx="1370.9" cy="300" r="18" class="state"/><text x="1370.9" y="304" text-anchor="middle">22</text>
<circle cx="1430.0" cy="300" r="18" class="state"/><text x="1430.0" y="304" text-anchor="middle">23</text>
<text x="30" y="525" class="label">Red arcs: Viterbi path. Gray arcs: alternative segmentations; labels show posterior arc probability.</text>
</svg>